<?xml version="1.0" encoding="utf-8"?>
<!-- Generator: Adobe Illustrator 18.1.0, SVG Export Plug-In . SVG Version: 6.00 Build 0)  -->
<svg version="1.1" id="Layer_1" xmlns="http://www.w3.org/2000/svg" xmlns:xlink="http://www.w3.org/1999/xlink" x="0px" y="0px"
	 viewBox="0 0 852.5 281.6" enable-background="new 0 0 852.5 281.6" xml:space="preserve">
<polygon fill="#00457C" points="0,43.1 43.1,0 852.5,0 852.5,238.5 809.5,281.6 0,281.6 "/>
<g>
	<polygon fill="#FFFFFF" points="307.2,186 309.8,186 309.8,168.9 315.9,168.9 315.9,166.4 301.1,166.4 301.1,168.9 307.2,168.9 	
		"/>
	<path fill="#FFFFFF" d="M320.3,172.8c-3.2,0-5.4,2.7-5.4,6.6c0,3.6,2,6.9,5.6,6.9c2,0,3.2-0.5,4.6-1.5v-2.5c-1.3,1-2.7,1.6-4.1,1.6
		c-2.2,0-3.5-1.3-3.9-3.9h8.2C325.4,175.2,323.4,172.8,320.3,172.8z M317.2,178.2c0.3-2,1.4-3.2,3.1-3.2c1.6,0,2.6,1.2,2.7,3.2
		H317.2z"/>
	<polygon fill="#FFFFFF" points="347.7,166.4 345.3,166.4 340.4,179.9 335.5,166.4 332.9,166.4 340.1,186.2 340.6,186.2 
		346.4,170.1 352.2,186.2 352.7,186.2 359.9,166.4 357.4,166.4 352.6,179.9 	"/>
	<path fill="#FFFFFF" d="M372.7,186v-7.9c0-3.5-1.7-5.3-4-5.3c-1.3,0-2.6,0.7-3.5,2h-0.1v-8.4h-2.3V186h2.3v-9.3
		c1.1-1.3,1.9-1.9,2.9-1.9c1.4,0,2.3,1.2,2.3,3.1v8H372.7z"/>
	<path fill="#FFFFFF" d="M380.3,179c-1.9,0.7-4,1.5-4,4.1c0,1.7,1.1,3.2,2.8,3.2c1.1,0,2.1-0.4,3.1-1.3c0.2,0.9,0.8,1.3,1.8,1.3
		c0.7,0,1.2-0.2,2.2-1v-1.6c-0.5,0.4-1,0.7-1.2,0.7c-0.3,0-0.4-0.2-0.4-0.7v-6.7c0-2.9-1.9-4.3-4.2-4.3c-1.7,0-3,0.6-3.9,1.8v2.8
		c1.1-1.5,2.4-2.1,3.7-2.1c1.4,0,2.1,0.7,2.1,2.3v0.7L380.3,179z M382.4,183.4c-0.6,0.7-1.3,1.1-2,1.1c-1,0-1.7-0.7-1.7-1.8
		c0-1.5,1.7-2.3,3.7-3V183.4z"/>
	<path fill="#FFFFFF" d="M389.9,173.1V186h2.3v-6.8c0-2.2,1.2-4,2.8-4c0.5,0,1.5,0.5,2.2,1.3l1.2-2.2c-1-1-1.8-1.5-2.8-1.5
		c-1.1,0-2.2,1-3.4,3.2h-0.1v-3H389.9z"/>
	<path fill="#FFFFFF" d="M405.7,172.8c-3.2,0-5.4,2.7-5.4,6.6c0,3.6,2,6.9,5.6,6.9c2,0,3.2-0.5,4.6-1.5v-2.5c-1.4,1-2.7,1.6-4.1,1.6
		c-2.2,0-3.6-1.3-3.9-3.9h8.2C410.8,175.2,408.8,172.8,405.7,172.8z M402.7,178.2c0.3-2,1.4-3.2,3.1-3.2c1.6,0,2.6,1.2,2.7,3.2
		H402.7z"/>
	<polygon fill="#FFFFFF" points="433.1,166.4 430.7,166.4 425.8,179.9 420.9,166.4 418.4,166.4 425.5,186.2 426,186.2 431.9,170.1 
		437.7,186.2 438.2,186.2 445.3,166.4 442.8,166.4 438,179.9 	"/>
	<path fill="#FFFFFF" d="M449.8,179c-1.9,0.7-4,1.5-4,4.1c0,1.7,1.1,3.2,2.8,3.2c1.1,0,2.1-0.4,3.1-1.3c0.2,0.9,0.8,1.3,1.8,1.3
		c0.7,0,1.2-0.2,2.2-1v-1.6c-0.5,0.4-1,0.7-1.2,0.7c-0.3,0-0.4-0.2-0.4-0.7v-6.7c0-2.9-1.9-4.3-4.2-4.3c-1.7,0-3,0.6-3.9,1.8v2.8
		c1.1-1.5,2.4-2.1,3.7-2.1c1.4,0,2.1,0.7,2.1,2.3v0.7L449.8,179z M451.9,183.4c-0.6,0.7-1.3,1.1-2,1.1c-1,0-1.7-0.7-1.7-1.8
		c0-1.5,1.7-2.3,3.7-3V183.4z"/>
	<path fill="#FFFFFF" d="M469,186v-8c0-3.5-1.8-5.2-4-5.2c-1.3,0-2.6,0.7-3.5,2h-0.1v-1.7h-2.3V186h2.3v-9.3
		c1.1-1.3,1.9-1.9,2.9-1.9c1.4,0,2.3,1.2,2.3,3.1v8H469z"/>
	<path fill="#FFFFFF" d="M476.6,179c-1.9,0.7-4,1.5-4,4.1c0,1.7,1.1,3.2,2.9,3.2c1.1,0,2.1-0.4,3.1-1.3c0.2,0.9,0.8,1.3,1.8,1.3
		c0.7,0,1.2-0.2,2.2-1v-1.6c-0.5,0.4-1,0.7-1.2,0.7c-0.3,0-0.4-0.2-0.4-0.7v-6.7c0-2.9-1.9-4.3-4.2-4.3c-1.7,0-3,0.6-3.9,1.8v2.8
		c1.1-1.5,2.4-2.1,3.7-2.1c1.4,0,2.1,0.7,2.1,2.3v0.7L476.6,179z M478.7,183.4c-0.6,0.7-1.3,1.1-2,1.1c-1,0-1.7-0.7-1.7-1.8
		c0-1.5,1.7-2.3,3.7-3V183.4z"/>
	<path fill="#FFFFFF" d="M495.8,186v-8c0-3.5-1.8-5.2-4-5.2c-1.3,0-2.6,0.7-3.5,2h-0.1v-1.7H486V186h2.3v-9.3
		c1.1-1.3,1.9-1.9,2.9-1.9c1.4,0,2.3,1.2,2.3,3.1v8H495.8z"/>
	<path fill="#FFFFFF" d="M509.7,173.1h-4.8c-3.1,0-5.1,1.7-5.1,4.5c0,1,0.2,1.8,0.6,2.4c0.4,0.7,1.1,1.2,2,1.6v0.1
		c-1.1,0.3-1.8,1-1.8,1.8c0,0.6,0.4,1.1,1.2,1.6c-2,0.5-2.9,1.7-2.9,3.6c0,2.3,2.2,3.9,5.4,3.9c3.5,0,5.5-1.6,5.5-4.1
		c0-1.6-0.9-3-3.4-3.6c-2.3-0.5-3.6-0.9-3.6-1.7c0-1.5,3.2-0.6,4.7-2.5c0.5-0.6,1.1-1.9,1.1-2.9c0-1.1-0.3-1.8-1.2-2.8h2.4V173.1z
		 M503.6,186.7c1.4,0,3.8,0.4,3.8,2.1c0,1.2-1.2,1.9-3.2,1.9c-2.1,0-3.2-0.7-3.2-2C500.9,187.5,502,186.7,503.6,186.7z M504.2,180
		c-1.4,0-2.3-1-2.3-2.4c0-1.3,1-2.3,2.3-2.3c1.2,0,2.3,1,2.3,2.3C506.4,179,505.5,180,504.2,180z"/>
	<path fill="#FFFFFF" d="M515.9,179c-1.9,0.7-4,1.5-4,4.1c0,1.7,1.1,3.2,2.9,3.2c1.1,0,2.1-0.4,3.1-1.3c0.2,0.9,0.8,1.3,1.8,1.3
		c0.7,0,1.2-0.2,2.2-1v-1.6c-0.5,0.4-1,0.7-1.2,0.7c-0.3,0-0.4-0.2-0.4-0.7v-6.7c0-2.9-1.9-4.3-4.2-4.3c-1.7,0-3,0.6-3.9,1.8v2.8
		c1.1-1.5,2.4-2.1,3.7-2.1c1.4,0,2.1,0.7,2.1,2.3v0.7L515.9,179z M517.9,183.4c-0.6,0.7-1.3,1.1-2,1.1c-1,0-1.7-0.7-1.7-1.8
		c0-1.5,1.7-2.3,3.7-3V183.4z"/>
	<path fill="#FFFFFF" d="M539.3,186.3c3.7,0,6.3-2.8,6.3-6.9c0-3.8-2.6-6.6-6.3-6.6c-3.5,0-6.1,2.9-6.1,6.6
		C533.2,183.4,535.7,186.3,539.3,186.3z M539.3,175.1c2.3,0,4,1.8,4,4.3c0,2.8-1.5,4.5-4,4.5c-2.2,0-3.8-1.8-3.8-4.6
		C535.5,176.9,537.1,175.1,539.3,175.1z"/>
	<polygon fill="#FFFFFF" points="562.3,186 562.3,168.9 568.5,168.9 568.5,166.4 553.7,166.4 553.7,168.9 559.8,168.9 559.8,186 	
		"/>
	<path fill="#FFFFFF" d="M571.7,179c-1.9,0.7-4,1.5-4,4.1c0,1.7,1.1,3.2,2.8,3.2c1.1,0,2.1-0.4,3.1-1.3c0.2,0.9,0.8,1.3,1.8,1.3
		c0.7,0,1.2-0.2,2.2-1v-1.6c-0.5,0.4-1,0.7-1.2,0.7c-0.3,0-0.4-0.2-0.4-0.7v-6.7c0-2.9-1.9-4.3-4.2-4.3c-1.7,0-2.9,0.6-3.9,1.8v2.8
		c1.1-1.5,2.4-2.1,3.7-2.1c1.4,0,2.1,0.7,2.1,2.3v0.7L571.7,179z M573.7,183.4c-0.6,0.7-1.3,1.1-2,1.1c-1,0-1.7-0.7-1.7-1.8
		c0-1.5,1.7-2.3,3.7-3V183.4z"/>
	<path fill="#FFFFFF" d="M598.8,186v-8.1c0-3.1-1.5-5.1-3.9-5.1c-1.7,0-2.9,1.1-3.9,2.3c-0.8-1.5-2-2.3-3.5-2.3
		c-1.1,0-2.2,0.6-3.4,2v-1.7h-2.3V186h2.3v-9.4c1-1.2,1.7-1.6,2.9-1.6c1.1,0,2.1,0.9,2.1,3v8h2.3v-9.4c0.8-1,1.8-1.7,2.6-1.6
		c1.3,0,2.4,1.1,2.4,3v8H598.8z"/>
	<path fill="#FFFFFF" d="M607.2,179c-1.9,0.7-4,1.5-4,4.1c0,1.7,1.1,3.2,2.8,3.2c1.1,0,2.1-0.4,3.1-1.3c0.2,0.9,0.7,1.3,1.8,1.3
		c0.7,0,1.2-0.2,2.2-1v-1.6c-0.5,0.4-1,0.7-1.2,0.7c-0.3,0-0.4-0.2-0.4-0.7v-6.7c0-2.9-1.9-4.3-4.2-4.3c-1.7,0-3,0.6-3.9,1.8v2.8
		c1.1-1.5,2.4-2.1,3.7-2.1c1.4,0,2.1,0.7,2.1,2.3v0.7L607.2,179z M609.3,183.4c-0.6,0.7-1.3,1.1-2,1.1c-1,0-1.6-0.7-1.6-1.8
		c0-1.5,1.7-2.3,3.7-3V183.4z"/>
	<polygon fill="#FFFFFF" points="625.1,173.1 620,179.4 625.8,186 628.9,186 622.9,179.4 627.9,173.1 	"/>
	<rect x="617.5" y="166.4" fill="#FFFFFF" width="2.3" height="19.7"/>
	<path fill="#FFFFFF" d="M633.5,167.6c-0.8,0-1.4,0.7-1.4,1.5c0,0.8,0.6,1.5,1.4,1.5c0.7,0,1.4-0.7,1.4-1.5
		C634.8,168.3,634.2,167.6,633.5,167.6z"/>
	<rect x="632.3" y="173.1" fill="#FFFFFF" width="2.3" height="12.9"/>
	<polygon fill="#FFFFFF" points="666.4,186 666.4,166.4 664,166.4 658.1,174.4 652.3,166.4 649.9,166.4 649.9,186 652.4,186 
		652.4,170.7 652.5,170.7 657.9,178.3 658.4,178.3 663.8,170.7 663.8,170.7 663.8,186 	"/>
	<path fill="#FFFFFF" d="M675.1,179c-1.9,0.7-4,1.5-4,4.1c0,1.7,1.2,3.2,2.9,3.2c1.1,0,2.1-0.4,3.1-1.3c0.2,0.9,0.8,1.3,1.8,1.3
		c0.7,0,1.2-0.2,2.2-1v-1.6c-0.5,0.4-1,0.7-1.2,0.7c-0.3,0-0.4-0.2-0.4-0.7v-6.7c0-2.9-1.9-4.3-4.2-4.3c-1.7,0-3,0.6-3.9,1.8v2.8
		c1.1-1.5,2.4-2.1,3.7-2.1c1.4,0,2.1,0.7,2.1,2.3v0.7L675.1,179z M677.2,183.4c-0.6,0.7-1.3,1.1-2,1.1c-1,0-1.7-0.7-1.7-1.8
		c0-1.5,1.7-2.3,3.7-3V183.4z"/>
	<polygon fill="#FFFFFF" points="693,173.1 687.8,179.4 693.7,186 696.8,186 690.8,179.4 695.7,173.1 	"/>
	<rect x="685.4" y="166.4" fill="#FFFFFF" width="2.3" height="19.7"/>
	<path fill="#FFFFFF" d="M699.4,174.6v2.8c1.1-1.5,2.4-2.1,3.7-2.1c1.4,0,2.1,0.7,2.1,2.3v0.7l-2.1,0.8c-1.9,0.7-4,1.5-4,4.1
		c0,1.7,1.2,3.2,2.9,3.2c1.1,0,2.1-0.4,3.1-1.3c0.2,0.9,0.8,1.3,1.8,1.3c0.7,0,1.2-0.2,2.2-1v-1.6c-0.5,0.4-1,0.7-1.2,0.7
		c-0.3,0-0.4-0.2-0.4-0.7v-6.7c0-2.9-1.9-4.3-4.2-4.3C701.6,172.8,700.3,173.4,699.4,174.6z M705.2,183.4c-0.6,0.7-1.3,1.1-2,1.1
		c-1,0-1.7-0.7-1.7-1.8c0-1.5,1.7-2.3,3.7-3V183.4z"/>
	<path fill="#FFFFFF" d="M723.1,186v-12.9h-2.3v9.2c-0.7,1.2-1.7,1.8-2.8,1.8c-1.6,0-2.4-1-2.4-2.8v-8.2h-2.3v8c0,3.3,1.7,5.2,4,5.2
		c1.1,0,2.5-0.7,3.4-1.9v1.6H723.1z"/>
	<path fill="#FFFFFF" d="M728.8,173.1V186h2.3v-6.8c0-2.2,1.2-4,2.8-4c0.5,0,1.4,0.5,2.1,1.3l1.2-2.2c-1-1-1.8-1.5-2.8-1.5
		c-1.1,0-2.2,1-3.4,3.2h0v-3H728.8z"/>
	<path fill="#FFFFFF" d="M744.2,179c-1.9,0.7-4,1.5-4,4.1c0,1.7,1.1,3.2,2.9,3.2c1.1,0,2.1-0.4,3.1-1.3c0.2,0.9,0.8,1.3,1.8,1.3
		c0.7,0,1.2-0.2,2.2-1v-1.6c-0.5,0.4-1,0.7-1.2,0.7c-0.3,0-0.4-0.2-0.4-0.7v-6.7c0-2.9-1.9-4.3-4.2-4.3c-1.7,0-3,0.6-3.9,1.8v2.8
		c1.1-1.5,2.4-2.1,3.7-2.1c1.4,0,2.1,0.7,2.1,2.3v0.7L744.2,179z M746.3,183.4c-0.6,0.7-1.3,1.1-2,1.1c-1,0-1.7-0.7-1.7-1.8
		c0-1.5,1.7-2.3,3.7-3V183.4z"/>
	<path fill="#FFFFFF" d="M764.2,186v-12.9h-2.3v9.2c-0.7,1.2-1.7,1.8-2.8,1.8c-1.6,0-2.4-1-2.4-2.8v-8.2h-2.3v8c0,3.3,1.7,5.2,4,5.2
		c1.1,0,2.5-0.7,3.4-1.9v1.6H764.2z"/>
	<rect x="446.3" y="169.9" fill="#FFFFFF" width="6.7" height="1.3"/>
	<rect x="568.3" y="169.9" fill="#FFFFFF" width="6.7" height="1.3"/>
	<polygon fill="#FFFFFF" points="389.7,72.7 376.2,72.7 376.2,63.3 388.9,63.3 388.9,57.6 376.2,57.6 376.2,48.5 389.3,48.5 
		389.3,42.8 370.6,42.8 370.6,78.3 389.7,78.4 	"/>
	<polygon fill="#FFFFFF" points="553.1,48.5 553.1,42.8 534.4,42.8 534.4,78.3 553.5,78.4 553.5,72.7 540,72.7 540,63.3 552.7,63.3 
		552.7,57.6 540,57.6 540,48.5 	"/>
	<polygon fill="#FFFFFF" points="339.1,63.4 355.2,63.4 355.2,78.3 360.9,78.3 360.9,42.8 355.2,42.8 355.2,57.8 339.1,57.8 
		339.1,42.8 333.4,42.8 333.4,78.3 339.1,78.3 	"/>
	<path fill="#FFFFFF" d="M424,78.8c4.6,0,8.3-1.4,10.8-4c2.3-2.5,3.6-6.1,3.6-10.5V42.8h-5.7v20.6c0,3.6-0.5,5.7-1.8,7.1
		c-0.9,1-2.9,2.6-6.8,2.6c-2.5,0-4.5-0.9-6.2-2.7c-1.3-1.5-1.7-3-1.7-6.6V42.8l-5.7,0v21.9c0,4.5,1.4,8.2,4.2,10.7
		C417.1,77.6,420.4,78.8,424,78.8z"/>
	<path fill="#FFFFFF" d="M476.2,78.3V42.8h-5.4c0,0,0,24.6,0,25.4c-0.5-0.6-20-25.4-20-25.4h-4.4v35.5h5.4c0,0,0-24.4,0-25.2
		c0.5,0.6,19.7,25.2,19.7,25.2H476.2z"/>
	<path fill="#FFFFFF" d="M527.3,42.8h-5.7c0,0-8.6,22.3-8.8,23c-0.3-0.7-8.9-23-8.9-23h-5.7L512,78.6l1.8,0L527.3,42.8z"/>
	<path fill="#FFFFFF" d="M582.5,78.3h6.8l-0.9-1.4c-1.9-2.9-2.6-4-3.9-6.3c-1.1-2-2.2-4-3.3-5.6c-1-1.5-2-2.6-3-3.5
		c3-1.7,4.6-4.7,4.6-8.5c0-3.1-1-5.7-2.9-7.5c-1.9-1.8-4.6-2.7-7.8-2.7h-8.4v35.5l5.7,0c0,0,0-14.6,0-14.9c0.2,0,1.2,0,1.2,0
		c1.9,0,3.6,0.5,7.7,7.5L582.5,78.3z M577,53c0,1.5-0.4,2.6-1.2,3.5c-0.9,0.9-2.3,1.4-4.3,1.4c0,0-2,0-2.2,0c0-0.3,0-9.3,0-9.5
		c0.3,0,2.2,0,2.2,0c3.7,0,5.4,1.5,5.5,4.6C577,52.9,577,52.9,577,53z"/>
	<path fill="#FFFFFF" d="M603.4,48.5c2.4,0,4.7,1.1,6.8,3.4l0.8,0.9l0.3,0.3v-7.4l-0.1,0l-0.2-0.1c-2.2-1.7-4.7-2.5-7.3-2.5
		c-2.9,0-5.4,0.9-7.2,2.7c-1.8,1.7-2.7,4.2-2.7,7.1c0,4.9,3.4,7.6,6.9,10l0.9,0.6l1.6,1.1c0.9,0.7,1.5,1.2,2.1,1.7
		c1.3,1.3,1.9,2.5,1.9,3.9c0,1.4-1.2,3.7-4.4,3.7c-2.8,0-5.5-1.7-7.6-4.7l-0.8-1.2l-0.3-0.4l0.2,8.6l0,0c2.7,2.3,5.6,3.3,9,3.3
		c2.6,0,4.9-1,6.6-2.8c1.7-1.8,2.6-4.3,2.6-7.1c0-5.8-3.6-8.6-7-10.8L603,57c-0.9-0.6-1.5-1.1-2.1-1.5c-1.3-1.1-1.9-2.2-1.9-3.5
		C599.1,49.9,600.9,48.5,603.4,48.5z"/>
	<path fill="#FFFFFF" d="M676.2,78.4h5.7c0,0,0-18.4,0-18.5c0.1-0.1,12-17,12-17h-6.8c0,0-7.8,11-8,11.4c-0.2-0.3-8-11.4-8-11.4
		l-6.8,0c0,0,12,16.9,12,16.9C676.2,59.9,676.2,78.4,676.2,78.4z"/>
	<rect x="485.5" y="42.8" fill="#FFFFFF" width="5.6" height="35.5"/>
	<rect x="622.2" y="42.8" fill="#FFFFFF" width="5.7" height="35.5"/>
	<polygon fill="#FFFFFF" points="312.5,78.3 318.2,78.3 318.2,48.5 328.9,48.5 328.9,42.8 301.9,42.8 301.9,48.5 312.5,48.5 	"/>
	<polygon fill="#FFFFFF" points="645.8,78.3 651.4,78.3 651.4,48.5 662.1,48.5 662.1,42.8 635.1,42.8 635.1,48.5 645.8,48.5 	"/>
	<polygon fill="#FFFFFF" points="751.4,62.2 763.3,62.2 763.3,56.6 751.4,56.6 751.4,48.4 763.3,48.4 763.3,42.8 745.8,42.8 
		745.8,77.9 751.4,77.9 	"/>
	<path fill="#FFFFFF" d="M722.1,78.8c5.1,0,9.4-1.9,12.6-5.5c2.9-3.3,4.5-7.7,4.5-12.5c0-4.9-1.6-9.3-4.6-12.6
		c-3.1-3.5-7.4-5.4-12.4-5.4c-4.8,0-9.2,1.9-12.3,5.4c-3,3.3-4.6,7.8-4.6,12.6c0,4.8,1.6,9.2,4.5,12.5
		C712.9,76.9,717.2,78.8,722.1,78.8z M714.1,52c2.1-2.2,4.9-3.5,8-3.5c6.5,0,11.3,5.2,11.3,12.3c0,3.4-1.1,6.6-3.2,8.8
		c-2.1,2.3-4.9,3.5-8.1,3.5c-3.1,0-6-1.2-8-3.5c-2.1-2.3-3.2-5.4-3.2-8.8C710.9,57.4,712.1,54.2,714.1,52z"/>
	<path fill="#FFFFFF" d="M614.1,92.4h-6.7L584,153h9.9c0,0,6.5-16.9,6.6-17.2c0.3,0,20.6,0,20.9,0c0.1,0.3,7,17.2,7,17.2h9.9
		L614.1,92.4z M604.2,126.3c0.2-0.6,6-16.1,6.4-17.2c0.5,1.1,6.7,16.6,6.9,17.2C616.8,126.3,604.9,126.3,604.2,126.3z"/>
	<polygon fill="#FFFFFF" points="575.6,143.5 551.9,143.5 551.9,92.8 542.3,92.8 542.3,153 575.6,153 	"/>
	<path fill="#FFFFFF" d="M318.2,135.9c0.3,0,20.6,0,20.9,0c0.1,0.3,7,17.2,7,17.2h9.9l-24.2-60.6H325L301.6,153h9.9
		C311.6,153,318.1,136.2,318.2,135.9z M328.3,109.1c0.4,1.1,6.6,16.6,6.9,17.2c-0.7,0-12.6,0-13.2,0
		C322.1,125.7,327.9,110.2,328.3,109.1z"/>
	<path fill="#FFFFFF" d="M470.4,148.3v-11.8l-0.4,0.3l-1.3,0.9c-5.7,4.1-12,6.4-17.7,6.4c-5.9,0-10.9-2-14.6-5.8
		c-3.7-3.8-5.6-9.1-5.6-15.2c0-5.9,2-11.4,5.7-15.2c3.7-3.9,8.7-6,14.2-6c5.8,0,11.2,1.8,17.5,5.9l1.2,0.8l0.4,0.3l-0.5-11.7
		l-0.2-0.1c-7.4-3.4-12.9-4.9-18.4-4.9c-17.2,0-29.8,13.4-29.8,31.8c0,6.9,2.6,14.3,7,19.7c3.8,4.7,10.7,10.3,22.3,10.3
		c9.2,0,15-2.6,19.9-5.5L470.4,148.3z"/>
	<path fill="#FFFFFF" d="M503.4,121.3c0.3-0.3,23.7-28.6,23.7-28.6H515c0,0-19.7,23.8-20.5,24.8c0-1.3,0-24.8,0-24.8h-9.6V153h9.6
		c0,0,0-26,0-27.2c0.8,0.9,25.2,27.2,25.2,27.2h13.2C532.8,153,503.7,121.6,503.4,121.3z"/>
	<path fill="#FFFFFF" d="M759.4,102.5c-5.2-6.4-12.8-9.8-22-9.8H716V153h21.5c8.4,0,15.8-3.2,21.2-9.3c4.9-5.5,7.7-13.1,7.7-20.8
		C766.4,115.3,763.8,107.9,759.4,102.5z M736.6,143.5c0,0-10.5,0-10.9,0c0-0.5,0-40.6,0-41.1c0.5,0,10.6,0,10.6,0
		c6.5,0,11.8,2.1,15.4,6.1c3.2,3.6,4.9,8.6,4.9,14.5C756.5,130.5,752.3,143.5,736.6,143.5z"/>
	<path fill="#FFFFFF" d="M385.6,153.8c7.9,0,14-2.3,18.2-6.8c4-4.2,6.1-10.4,6.1-17.9V92.8h-9.6v34.9c0,6.1-0.9,9.6-3,12
		c-1.5,1.6-4.9,4.3-11.5,4.3c-4.3,0-7.7-1.5-10.5-4.6c-2.2-2.5-2.9-5.1-2.9-11.3V92.8l-9.6,0V130c0,7.6,2.5,13.9,7.1,18.1
		C373.9,151.8,379.5,153.8,385.6,153.8z"/>
	<path fill="#FFFFFF" d="M691.2,135.9c-0.9-1.1-34-43.1-34-43.1l-7.5,0V153h9.1c0,0,0-41.5,0-42.8c0.9,1.1,33.5,42.8,33.5,42.8h8
		V92.8h-9.2C691.2,92.8,691.2,134.5,691.2,135.9z"/>
	<polygon fill="#FFFFFF" points="321,231.1 306.4,213.9 302.3,213.9 302.3,238.5 306.9,238.5 306.9,221 321.6,238.5 325.7,238.5 
		325.7,213.9 321,213.9 	"/>
	<polygon fill="#FFFFFF" points="355.3,227.8 366,227.8 366,224.1 355.3,224.1 355.3,217.6 366.5,217.6 366.5,213.9 350.6,213.9 
		350.6,238.5 366.7,238.5 366.7,234.8 355.3,234.8 	"/>
	<polygon fill="#FFFFFF" points="416,229.1 409.5,213.9 405.5,213.9 399.1,229.1 393,213.9 388,213.9 398.2,238.8 399.7,238.8 
		407.5,220.6 415.3,238.8 416.9,238.8 427,213.9 422.1,213.9 	"/>
	<polygon fill="#FFFFFF" points="499,213.9 477.4,213.9 477.4,217.6 490.8,217.6 476.5,238.5 499.1,238.5 499.1,234.8 484.7,234.8 	
		"/>
	<polygon fill="#FFFFFF" points="526.9,227.8 537.6,227.8 537.6,224.1 526.9,224.1 526.9,217.6 538.1,217.6 538.1,213.9 
		522.2,213.9 522.2,238.5 538.3,238.5 538.3,234.8 526.9,234.8 	"/>
	<path fill="#FFFFFF" d="M569.8,213.9l-10.1,24.6h5l2.4-6H578l2.6,6h5l-10.9-24.6H569.8z M568.5,228.9l3.8-9.7l4.2,9.7H568.5z"/>
	<polygon fill="#FFFFFF" points="612.7,213.9 607.9,213.9 607.9,238.5 624.6,238.5 624.6,234.8 612.7,234.8 	"/>
	<path fill="#FFFFFF" d="M654.9,213.9l-10.1,24.6h5l2.4-6h10.9l2.6,6h5l-10.9-24.6H654.9z M653.6,228.9l3.8-9.7l4.2,9.7H653.6z"/>
	<polygon fill="#FFFFFF" points="711.8,231.1 697.2,213.9 693,213.9 693,238.5 697.7,238.5 697.7,221 712.4,238.5 716.4,238.5 
		716.4,213.9 711.8,213.9 	"/>
	<path fill="#FFFFFF" d="M758.4,215.5c-2-1-4.3-1.6-6.8-1.6h-10.3v24.6h10c2.6,0,5-0.5,7-1.5c2-1,3.6-2.5,4.7-4.3
		c1.1-1.9,1.7-4,1.7-6.4c0-2.4-0.6-4.5-1.7-6.4C762,218,760.4,216.5,758.4,215.5z M757.5,232.4c-1.6,1.6-3.7,2.4-6.3,2.4h-5.1v-17.2
		h4.9c2.7,0,4.9,0.8,6.5,2.3c1.6,1.5,2.4,3.6,2.4,6.3C759.8,228.8,759,230.8,757.5,232.4z"/>
	<rect x="302" y="201.4" fill="#FFFFFF" width="463.8" height="2.7"/>
</g>
<g>
	<path fill="#FFFFFF" d="M86.2,43.1V130c0,20.4,15.3,79.8,84.9,108.9l1.1,0.5l1.1-0.5c69.6-29.1,84.9-88.5,84.9-108.9V43.1H86.2z"/>
	<path fill="#00457C" d="M104.7,100.6L104.7,100.6l-0.5-0.3c-3.9-2.3-8.5-3.5-13.1-3.5c-0.4,0-0.6,0-0.9,0l-0.3,0V130
		c0,0.7,2.2,71.6,82.3,105.3c80-33.7,82.2-104.6,82.2-105.3v-33c-0.4,0-0.7,0-1.1,0c-4.6,0-9.1,1.2-13.1,3.6c-8.4,5-19.4,5-27.9,0
		c-8-4.7-18.3-4.7-26.2,0l-0.2,0.1c-8.4,4.8-19.3,4.8-27.7-0.1l-0.1-0.1c-7.9-4.6-18.2-4.6-26.1,0l-0.4,0.2l0,0
		C123.5,105.2,112.9,105.3,104.7,100.6z"/>
	<path fill="#00457C" d="M114,58.6c3-3.6,7-3.9,8.8-4c12.8-0.4,19.2,9.2,19,16.8c-0.3,8.7-6.9,10.8-7.8,11c0,0-0.1,1.9,1.4,4.4
		c0.1,0.2,0.4,0.4,0.1,0.9c0,0.1-0.3,0.6-0.4,0.7c-0.1,0.1-0.2,0.4-0.1,0.7c0.2,0.6-0.1,1.2-0.5,2c-0.3,0.7,0.1,2.5,0.2,3.7
		c0,0.3-0.1,0.3-0.3,0.1c-0.8-0.5-1.4-2.2-1.6-3.1c-1.5,0.4-3.3,2.7-3.9,4c-0.1,0.2-0.4,0.4-0.4,0c0-0.1-0.3-2.7,2.1-4.5
		c-1.3-0.4-2.6,0.2-3.4,0.7c-0.1,0.1-0.4,0.2-0.2-0.2c0.1-0.1,0.8-1.7,4.1-2.2c0-0.1,0.7-1.2,1-2c-0.1-1.2-0.7-2.8-1.5-4.3
		c-0.1,0-2.5,0.2-4.2,1.5c-0.1,0.1-0.3,0.3-0.3,0.6s0,0.7,0,0.7c0,0.1-0.1,0.8-1,1c-0.1,0.1-2.9,1-4.2,1.6c-0.1,0.1-1.3,0.6-2.1,1.8
		c-0.2,0.2-0.9,1.3-1.9,1.6c-0.2,0.1-0.8,0.3-1.2,0.7c-0.4,0.4-0.8,0.8-1.1,1c-0.3,0.2-1.1,1-1.6,2.2c-0.1,0.2-0.2,0.4-0.3,0
		c0-0.5,0-1,0-1.1c0.3-1.4,1-2.1,1.5-2.8c-0.2-0.1-0.2,0-0.4-0.1c-1,0.1-4.2-0.2-6.1,0.8c-0.1,0.1-0.3,0.1-0.1-0.2
		c0.4-0.5,1.1-2.3,5.4-2.4c0.1-0.4-1.9-1.4-2.9-1.4c-0.3,0-0.1-0.2,0-0.2c0.2-0.1,2.1-0.9,4.4,0.5c0.1-0.1,1.6-0.6,2.5-0.7
		c1-0.8,3.4-3.1,4.3-3.5c0-0.1-0.1-0.6,0-1.1l-0.1,0c-1.2-1.7-1.4-4.2-1.3-5.6c-2.5-0.2-5.1-2.4-6.5-4.2c-1.8-0.1-5.4-1.7-7.3-5.5
		c-6.5,4.7-10.8,13-11,13.4c-0.2,0.1-0.2,0.1-0.4,0c-0.7-1.3-0.9-3.3-0.6-3.9c1.3-3.4,4.3-8.2,7.5-12.4c-1.2-7.1,5.3-9.5,7.8-9.4
		C111.8,56.4,113.6,58.1,114,58.6L114,58.6z"/>
	<path fill="#FFFFFF" d="M126.7,59.6c0,0-0.2,0,0-0.1c0.1-0.4,1.5-0.9,2.3-1c-3.8-1.5-6.3,0.3-6.2,0.1l0-0.1c0,0,0.5-0.9,1.8-1.7
		c-3.5,0-5.3,1.9-5.3,1.9l0-0.3c0,0,0.2-0.7,1.4-1.8c-4,0.1-7.1,5.2-7.1,5.2s-0.7-3.6-4.2-3.6c-2.5-0.4-8.2,3.1-6,7.8
		c-1,1.9-4.4,4.8-7.2,10.7c-0.1,0.1,0.1,0.1,0,0.2c2.6-3.7,6.3-8.3,10.1-10.6c0.4,0.3,2.6,6,7.6,6.3c0.6,0.4,3.1,4.6,7.5,4.2
		c0.1,0.5,0,4.5,0.8,5.8l0.2,0.2c0-0.1,0,0,0,0c0.4-0.4,2.9-2.2,5-2.9c0,0,0.9-2.8,1.5-3.5c4.3-1,6.6-4.4,6.7-7.7
		C135.5,64,131.3,59.1,126.7,59.6z M105.3,65.1c-0.6,0-1.1-0.5-1.1-1.1c0-0.6,0.5-1.1,1.1-1.1c0.6,0,1.1,0.5,1.1,1.1
		C106.4,64.6,105.9,65.1,105.3,65.1z"/>
	<path fill="#00457C" d="M167.9,58.6c3-3.6,7-3.9,8.8-4c12.8-0.4,19.3,9.2,19,16.8c-0.3,8.7-6.9,10.8-7.8,11c0,0-0.1,1.9,1.4,4.4
		c0.1,0.2,0.4,0.4,0.1,0.9c0,0.1-0.3,0.6-0.4,0.7c-0.1,0.1-0.2,0.4-0.1,0.7c0.2,0.6-0.1,1.2-0.5,2c-0.3,0.7,0,2.5,0.2,3.7
		c0,0.3-0.1,0.3-0.3,0.1c-0.8-0.5-1.4-2.2-1.6-3.1c-1.6,0.4-3.4,2.7-4,4c-0.1,0.2-0.4,0.4-0.4,0c0-0.1-0.3-2.7,2.2-4.5
		c-1.3-0.4-2.6,0.2-3.4,0.7c-0.1,0.1-0.4,0.2-0.2-0.2c0.1-0.1,0.8-1.7,4.1-2.2c0-0.1,0.7-1.2,1-2c-0.1-1.2-0.7-2.8-1.5-4.3
		c-0.1,0-2.5,0.2-4.2,1.5c-0.1,0.1-0.3,0.3-0.3,0.6s0,0.7,0,0.7c0,0.1-0.1,0.8-1,1c-0.1,0.1-2.9,1-4.2,1.6c-0.1,0.1-1.3,0.6-2.2,1.8
		c-0.2,0.2-0.9,1.3-1.9,1.6c-0.3,0.1-0.8,0.3-1.2,0.7c-0.4,0.4-0.8,0.8-1.1,1c-0.3,0.2-1.1,1-1.6,2.2c-0.1,0.2-0.2,0.4-0.3,0
		c0-0.5,0-1,0-1.1c0.3-1.4,1-2.1,1.5-2.8c-0.2-0.1-0.2,0-0.4-0.1c-1,0.1-4.2-0.2-6.1,0.8c-0.1,0.1-0.3,0.1-0.1-0.2
		c0.4-0.5,1.1-2.3,5.4-2.4c0.1-0.4-1.9-1.4-2.9-1.4c-0.3,0-0.1-0.2,0-0.2c0.2-0.1,2.1-0.9,4.4,0.5c0.1-0.1,1.6-0.6,2.5-0.7
		c1.1-0.8,3.4-3.1,4.3-3.5c0-0.1-0.1-0.6,0-1.1l-0.1,0c-1.2-1.7-1.4-4.2-1.3-5.6c-2.5-0.2-5.1-2.4-6.5-4.2c-1.8-0.1-5.4-1.7-7.3-5.5
		c-6.5,4.7-10.8,13-11,13.4c-0.1,0.1-0.2,0.1-0.3,0c-0.7-1.3-0.9-3.3-0.6-3.9c1.3-3.4,4.3-8.2,7.5-12.4c-1.2-7.1,5.3-9.5,7.8-9.4
		C165.7,56.4,167.5,58.1,167.9,58.6L167.9,58.6z"/>
	<path fill="#FFFFFF" d="M180.6,59.6c0,0-0.1,0,0-0.1c0.2-0.4,1.5-0.9,2.3-1c-3.8-1.5-6.3,0.3-6.2,0.1l0-0.1c0,0,0.5-0.9,1.8-1.7
		c-3.5,0-5.3,1.9-5.3,1.9l0-0.3c0,0,0.2-0.7,1.4-1.8c-4,0.1-7.1,5.2-7.1,5.2s-0.7-3.6-4.2-3.6c-2.5-0.4-8.2,3.1-6,7.8
		c-1,1.9-4.4,4.8-7.2,10.7c-0.1,0.1,0.1,0.1,0,0.2c2.6-3.7,6.3-8.3,10-10.6c0.4,0.3,2.6,6,7.6,6.3c0.6,0.4,3.1,4.6,7.5,4.2
		c0.1,0.5,0.1,4.5,0.8,5.8l0.2,0.2c0-0.1,0,0,0,0c0.4-0.4,2.9-2.2,5-2.9c0,0,0.9-2.8,1.5-3.5c4.3-1,6.6-4.4,6.7-7.7
		C189.4,64,185.2,59.1,180.6,59.6z M159.2,65.1c-0.6,0-1.1-0.5-1.1-1.1c0-0.6,0.5-1.1,1.1-1.1c0.6,0,1.1,0.5,1.1,1.1
		C160.3,64.6,159.8,65.1,159.2,65.1z"/>
	<path fill="#00457C" d="M221.4,58.6c3-3.6,7-3.9,8.8-4c12.8-0.4,19.3,9.2,19,16.8c-0.3,8.7-6.9,10.8-7.8,11c0,0-0.1,1.9,1.4,4.4
		c0.1,0.2,0.4,0.4,0.1,0.9c0,0.1-0.3,0.6-0.4,0.7c-0.1,0.1-0.2,0.4-0.1,0.7c0.2,0.6,0,1.2-0.5,2c-0.3,0.7,0,2.5,0.2,3.7
		c0,0.3-0.1,0.3-0.3,0.1c-0.8-0.5-1.4-2.2-1.6-3.1c-1.6,0.4-3.4,2.7-3.9,4c-0.1,0.2-0.4,0.4-0.4,0c0-0.1-0.3-2.7,2.1-4.5
		c-1.3-0.4-2.6,0.2-3.5,0.7c-0.1,0.1-0.4,0.2-0.2-0.2c0.1-0.1,0.8-1.7,4.1-2.2c0-0.1,0.7-1.2,1-2c-0.1-1.2-0.7-2.8-1.5-4.3
		c-0.1,0-2.5,0.2-4.2,1.5c-0.1,0.1-0.3,0.3-0.3,0.6s0,0.7,0,0.7c0,0.1-0.1,0.8-1,1c-0.1,0.1-2.9,1-4.2,1.6c-0.1,0.1-1.3,0.6-2.1,1.8
		c-0.2,0.2-0.9,1.3-1.9,1.6c-0.3,0.1-0.8,0.3-1.2,0.7c-0.4,0.4-0.8,0.8-1.1,1c-0.3,0.2-1.1,1-1.6,2.2c-0.1,0.2-0.2,0.4-0.2,0
		c0-0.5,0-1,0-1.1c0.3-1.4,1-2.1,1.5-2.8c-0.2-0.1-0.2,0-0.4-0.1c-1,0.1-4.2-0.2-6.1,0.8c-0.1,0.1-0.3,0.1-0.1-0.2
		c0.4-0.5,1.1-2.3,5.4-2.4c0.1-0.4-1.9-1.4-2.9-1.4c-0.3,0-0.1-0.2,0-0.2c0.2-0.1,2.1-0.9,4.4,0.5c0.1-0.1,1.6-0.6,2.5-0.7
		c1-0.8,3.4-3.1,4.3-3.5c0-0.1-0.1-0.6,0-1.1l-0.1,0c-1.2-1.7-1.4-4.2-1.3-5.6c-2.5-0.2-5.1-2.4-6.5-4.2c-1.8-0.1-5.4-1.7-7.3-5.5
		c-6.5,4.7-10.8,13-11,13.4c-0.2,0.1-0.2,0.1-0.4,0c-0.7-1.3-0.9-3.3-0.6-3.9c1.3-3.4,4.3-8.2,7.6-12.4c-1.2-7.1,5.3-9.5,7.8-9.4
		C219.3,56.4,221.1,58.1,221.4,58.6L221.4,58.6z"/>
	<path fill="#FFFFFF" d="M234.2,59.6c0,0-0.2,0,0-0.1c0.1-0.4,1.5-0.9,2.3-1c-3.8-1.5-6.3,0.3-6.2,0.1l0-0.1c0,0,0.5-0.9,1.8-1.7
		c-3.5,0-5.3,1.9-5.3,1.9l0-0.3c0,0,0.2-0.7,1.4-1.8c-4,0.1-7.1,5.2-7.1,5.2s-0.7-3.6-4.2-3.6c-2.5-0.4-8.2,3.1-6,7.8
		c-1,1.9-4.4,4.8-7.2,10.7c-0.1,0.1,0.1,0.1,0,0.2c2.6-3.7,6.3-8.3,10.1-10.6c0.4,0.3,2.6,6,7.6,6.3c0.6,0.4,3.1,4.6,7.5,4.2
		c0.1,0.5,0,4.5,0.8,5.8l0.2,0.2c0-0.1,0,0,0,0c0.4-0.4,2.9-2.2,5-2.9c0,0,0.9-2.8,1.5-3.5c4.3-1,6.6-4.4,6.7-7.7
		C242.9,64,238.8,59.1,234.2,59.6z M212.8,65.1c-0.6,0-1.1-0.5-1.1-1.1c0-0.6,0.5-1.1,1.1-1.1c0.6,0,1.1,0.5,1.1,1.1
		C213.8,64.6,213.4,65.1,212.8,65.1z"/>
	<g>
		<path fill="#FFFFFF" d="M179,182.9l-1.2,0.8l1.3,0.7c0.8,0.4,1.4,1.3,1.4,2.3c0,1.4-1.2,2.6-2.6,2.6h-11.2c-1.4,0-2.6-1.2-2.6-2.6
			c0-1,0.5-1.9,1.4-2.3l1.3-0.7l-1.2-0.8c-2.7-1.8-5.8-2.7-8.8-2.7c-3.1,0-6.1,0.9-8.9,2.7c-3,2-5.8,2.7-10.6,2.7
			c-6,0-10.9-1.8-15.3-5.6l-0.2-0.2h-2.8l-0.3,0.3c-0.4,0.5-1,0.7-1.6,0.7c-1.1,0-2.1-0.9-2.1-1.9s0.9-1.9,2.1-1.9
			c0.6,0,1.2,0.3,1.6,0.8l0.3,0.3h3.4V174h-3.4l-0.3,0.3c-0.4,0.5-1,0.7-1.6,0.7c-1.1,0-2.1-0.9-2.1-1.9c0-1.1,0.9-1.9,2.1-1.9
			c0.6,0,1.2,0.3,1.6,0.8l0.3,0.3h3.3v-4.1h-3.3l-0.3,0.3c-0.4,0.5-1,0.7-1.6,0.7c-1.1,0-2.1-0.9-2.1-1.9c0-1.1,0.9-1.9,2.1-1.9
			c0.6,0,1.2,0.3,1.6,0.8l0.3,0.3h3.3v-4.1h-3.3l-0.3,0.3c-0.4,0.5-1,0.7-1.6,0.7c-1.1,0-2.1-0.9-2.1-1.9c0-1.1,0.9-1.9,2.1-1.9
			c0.6,0,1.2,0.3,1.6,0.8l0.3,0.3h3.3v-4.1h-3.3l-0.3,0.3c-0.4,0.5-1,0.7-1.6,0.7c-1.1,0-2.1-0.9-2.1-1.9c0-1.1,0.9-1.9,2.1-1.9
			c0.6,0,1.2,0.3,1.6,0.8l0.3,0.3h3.3V151h-3.3l-0.3,0.3c-0.4,0.5-1,0.7-1.6,0.7c-1.1,0-2.1-0.9-2.1-1.9c0-1.1,0.9-1.9,2.1-1.9
			c0.6,0,1.2,0.3,1.6,0.8l0.3,0.3h3.3v-4.1h-3.3l-0.3,0.3c-0.4,0.5-1,0.7-1.6,0.7c-1.1,0-2.1-0.9-2.1-1.9c0-1.1,0.9-1.9,2.1-1.9
			c0.6,0,1.2,0.3,1.6,0.8l0.3,0.3l2.6,0l2.8-1.4v37l0.4,0.8c7.7,4.8,15.4,5.3,22.3,1.4c7.3-4.1,17.5-4.3,23.6,4.4h-2.9
			c-0.5,0-0.9,0.4-0.9,0.9c0,0.5,0.4,0.9,0.9,0.9h9c0.5,0,0.9-0.4,0.9-0.9c0-0.5-0.4-0.9-0.9-0.9h-2.9c6.1-8.9,16.4-8.1,23.6-4.4
			c6.4,3.2,13.8,2.8,22.2-1.4l0.5-0.8l0-37l2.8,1.4l2.6,0l0.3-0.3c0.4-0.5,1-0.8,1.6-0.8c1.1,0,2.1,0.9,2.1,1.9
			c0,1.1-0.9,1.9-2.1,1.9c-0.6,0-1.2-0.3-1.6-0.7l-0.3-0.3h-3.3v4.1h3.3l0.3-0.3c0.4-0.5,1-0.8,1.6-0.8c1.1,0,2.1,0.9,2.1,1.9
			c0,1.1-0.9,1.9-2.1,1.9c-0.6,0-1.2-0.3-1.6-0.7l-0.3-0.3h-3.3v4.1h3.3l0.3-0.3c0.4-0.5,1-0.8,1.6-0.8c1.1,0,2.1,0.9,2.1,1.9
			c0,1.1-0.9,1.9-2.1,1.9c-0.6,0-1.2-0.3-1.6-0.7l-0.3-0.3h-3.3v4.1h3.3l0.3-0.3c0.4-0.5,1-0.8,1.6-0.8c1.1,0,2.1,0.9,2.1,1.9
			c0,1.1-0.9,1.9-2.1,1.9c-0.6,0-1.2-0.3-1.6-0.7l-0.3-0.3h-3.3v4.1h3.3l0.3-0.3c0.4-0.5,1-0.8,1.6-0.8c1.1,0,2.1,0.9,2.1,1.9
			c0,1.1-0.9,1.9-2.1,1.9c-0.6,0-1.2-0.3-1.6-0.7l-0.3-0.3h-3.3v4.1h3.3l0.3-0.3c0.4-0.5,1-0.8,1.6-0.8c1.1,0,2.1,0.9,2.1,1.9
			c0,1.1-0.9,1.9-2.1,1.9c-0.6,0-1.2-0.3-1.6-0.7l-0.3-0.3h-3.3v4.1h3.4l0.3-0.3c0.4-0.5,1-0.8,1.6-0.8c1.1,0,2.1,0.9,2.1,1.9
			s-0.9,1.9-2.1,1.9c-0.6,0-1.2-0.3-1.6-0.7l-0.3-0.3h-2.8l-0.3,0.2c-4.4,3.8-9.3,5.6-15.3,5.6c-4.8,0-7.5-0.7-10.6-2.7
			C191.2,179.3,184.4,179.3,179,182.9z"/>
		<path fill="#FFFFFF" d="M128.4,177.9c5.7,3,10.4,3.8,18.8-0.5c9.2-4.8,18.7-1.7,24.2,3.6v2.8c-6.7-8.7-17.5-8.4-25.2-4
			c-6.2,3.5-13.1,3.1-20.1-1.1v-37.4l1.9-0.9v37.3L128.4,177.9z"/>
		<path fill="#FFFFFF" d="M129.7,176.5v-37.2l0.2-0.1c6.4,1.5,11.2,1,17.7-1.7c7.8-3.3,15.8-2.3,23.7,3.1v37.9
			c-3.8-3.2-9-5.4-14.7-5.4c-3.3,0-6.8,0.8-10.3,2.6C138.9,179.7,134.8,179.1,129.7,176.5z"/>
		<path fill="#FFFFFF" d="M197.3,177.3c8.4,4.4,13.1,3.5,18.8,0.5l0.5-0.3v-37.3l1.9,0.9l0,37.4c-7.6,3.7-14.4,4-20.1,1.1
			c-7.6-3.8-18.3-4.8-25.2,4V181C178.6,175.7,188.1,172.5,197.3,177.3z"/>
		<path fill="#FFFFFF" d="M173.1,178.6v-37.9c7.9-5.4,15.8-6.5,23.7-3.1c6.5,2.7,11.3,3.2,17.7,1.7l0.2,0.1v37.2
			c-5.1,2.6-9.1,3.1-16.7-0.8C188.8,170.9,179.2,173.5,173.1,178.6z"/>
		<polygon fill="#FFFFFF" points="215.2,132.6 205.1,125 195.1,132.6 198.9,120.5 188.4,112.9 201.2,112.9 205.1,100.7 209,112.9 
			221.9,112.9 211.3,120.5 		"/>
		<polygon fill="#FFFFFF" points="149.3,132.7 139.3,125.1 129.3,132.7 133.1,120.6 122.6,113 135.4,113 139.3,100.8 143.2,113 
			156.1,113 145.5,120.6 		"/>
		<polygon fill="#FFFFFF" points="162.2,227.6 166,215.5 155.5,207.9 168.4,207.9 172.2,195.8 176.1,207.9 189,207.9 178.4,215.5 
			182.3,227.6 172.2,220.1 		"/>
	</g>
</g>
</svg>
